<?xml version="1.0" standalone="no"?><!DOCTYPE svg PUBLIC "-//W3C//DTD SVG 1.1//EN" "http://www.w3.org/Graphics/SVG/1.1/DTD/svg11.dtd"><svg t="1596855977048" class="icon" viewBox="0 0 1024 1024" version="1.1" xmlns="http://www.w3.org/2000/svg" p-id="2455" xmlns:xlink="http://www.w3.org/1999/xlink" width="200" height="200"><defs><style type="text/css"></style></defs><path d="M331.117714 319.488c6.582857-0.731429 14.262857-6.582857 17.188572-12.946286l53.028571-119.588571 62.902857-142.043429c26.258286-59.465143 69.339429-59.465143 95.670857 0l62.902858 142.043429 52.882285 119.515428a24.283429 24.283429 0 0 0 17.115429 12.946286l125.147428 15.725714 148.187429 18.651429c62.171429 7.826286 75.483429 50.688 29.549714 95.232L886.198857 555.154286l-92.306286 89.6a26.038857 26.038857 0 0 0-6.582857 20.992l24.356572 129.243428 28.891428 153.673143c12.141714 64.365714-22.747429 90.843429-77.458285 58.88l-130.706286-76.214857-109.933714-64.219429a22.820571 22.820571 0 0 0-20.992 0l-109.933715 64.219429-130.633143 76.214857c-54.710857 31.963429-89.526857 5.412571-77.458285-58.88l29.037714-153.819428 24.283429-129.243429a25.746286 25.746286 0 0 0-6.509715-20.845714L137.874286 555.300571 28.233143 449.024c-45.933714-44.617143-32.621714-87.405714 29.549714-95.232l148.333714-18.651429 125.001143-15.652571z" fill="#FF4600" p-id="2456"></path></svg>